# xmcd
# Copyright (C) 1995-1998 Ti Kan
#
# Track frame offsets:
#       150
#       15452
#       33862
#       49278
#       75348
#       97710
#       118982
#       140115
#       159835
#
# Disc length: 2519 seconds
#
# Revision: 0
# Processed by: cddbd v1.5.2PL0 Copyright (c) Steve Scherf et al.
# Submitted via: CD-Import v1.0
#
DISCID=6309d509
DTITLE=Exnova - La Baveuse
DYEAR=07
DGENRE=
TTITLE0=La Baveuse
TTITLE1=Thé
TTITLE2=Mardi 10th
TTITLE3=Astrakhan
TTITLE4=Fixe
TTITLE5=Il Se Pourrait
TTITLE6=Les Algues
TTITLE7=Gribouillis
TTITLE8=Le Cosmonaute
EXTD=
EXTT0=
EXTT1=
EXTT2=
EXTT3=
EXTT4=
EXTT5=
EXTT6=
EXTT7=
EXTT8=
PLAYORDER=
